<svg xmlns="http://www.w3.org/2000/svg" fill="none" viewBox="0 0 130 52">
  <path fill="#00B37E" d="m52.016.351-12.73 47.532a.285.285 0 0 1-.475.13L30.29 39.49l6.386-23.82a.275.275 0 0 0-.345-.345L12.51 21.71l-8.479-8.479a.285.285 0 0 1 .13-.475L51.67.007c.215-.044.41.15.345.344Z" opacity=".5"/>
  <path fill="#00B37E" d="M30.288 39.49 27.01 51.788a.285.285 0 0 1-.475.13L.082 25.488a.285.285 0 0 1 .13-.475L12.51 21.71 30.289 39.49Z" opacity=".5"/>
  <path fill="#00B37E" d="M36.675 15.67 30.29 39.49 12.51 21.71l23.82-6.386c.216-.065.41.13.345.345Z"/>
  <path fill="white" d="M67.622 45.631c0-.206-.046-.398-.138-.573-.087-.181-.269-.344-.545-.489-.271-.15-.68-.279-1.228-.388a9.647 9.647 0 0 1-1.251-.348 3.78 3.78 0 0 1-.944-.489 2.042 2.042 0 0 1-.59-.675 1.896 1.896 0 0 1-.208-.907c0-.33.071-.643.215-.938.148-.295.355-.556.621-.783.272-.228.596-.406.975-.535a3.9 3.9 0 0 1 1.266-.194c.666 0 1.233.119 1.704.357.471.238.832.555 1.082.953.251.393.376.83.376 1.31h-1.42c0-.232-.069-.457-.207-.674a1.535 1.535 0 0 0-.59-.55c-.256-.145-.571-.217-.945-.217-.394 0-.713.062-.959.186-.24.119-.417.271-.53.457a1.161 1.161 0 0 0-.084 1.008.92.92 0 0 0 .292.334c.138.098.332.19.583.279.25.088.57.175.96.263.68.155 1.24.341 1.68.559.44.217.768.483.983.798.214.316.322.698.322 1.148a2.23 2.23 0 0 1-.883 1.799 3.23 3.23 0 0 1-1.013.512 4.482 4.482 0 0 1-1.312.178c-.732 0-1.35-.132-1.858-.396-.506-.263-.89-.604-1.15-1.023a2.468 2.468 0 0 1-.392-1.326h1.427c.02.393.133.706.338.938.205.228.456.39.752.489.297.093.591.14.883.14.389 0 .714-.053.974-.156.267-.103.469-.245.607-.426a.994.994 0 0 0 .207-.62Z"/>
  <path fill="white" d="M72.327 35.947v11.91h-1.42v-11.91h1.42Zm-.338 7.397-.591-.023c.005-.574.09-1.104.253-1.59a3.98 3.98 0 0 1 .691-1.28c.297-.361.65-.64 1.06-.837a3.099 3.099 0 0 1 1.373-.302c.41 0 .778.057 1.105.17.328.11.606.285.837.528.235.243.414.558.537.946.123.382.184.85.184 1.403v5.498H76.01v-5.513c0-.44-.063-.791-.191-1.055a1.186 1.186 0 0 0-.56-.581c-.246-.124-.548-.186-.906-.186-.353 0-.676.075-.967.224-.287.15-.535.357-.745.62a3.132 3.132 0 0 0-.483.908 3.348 3.348 0 0 0-.169 1.07Z"/>
  <path fill="white" d="M79.188 43.755v-.178c0-.605.087-1.166.26-1.683.175-.522.426-.974.753-1.357a3.358 3.358 0 0 1 1.19-.9 3.66 3.66 0 0 1 1.565-.325 3.68 3.68 0 0 1 1.573.326c.471.212.87.511 1.198.9.332.382.586.834.76 1.356.174.517.26 1.078.26 1.683v.178c0 .605-.086 1.166-.26 1.682-.174.518-.428.97-.76 1.358a3.485 3.485 0 0 1-1.19.899c-.46.212-.982.318-1.565.318a3.757 3.757 0 0 1-1.574-.318 3.562 3.562 0 0 1-1.197-.9 4.11 4.11 0 0 1-.752-1.356 5.245 5.245 0 0 1-.261-1.683Zm1.42-.178v.178c0 .419.048.814.145 1.186.098.367.244.693.438.977.2.285.448.51.745.675.296.16.642.24 1.036.24.388 0 .729-.08 1.02-.24.297-.166.543-.39.737-.675.195-.284.34-.61.438-.977.102-.372.153-.767.153-1.186v-.178c0-.414-.051-.804-.153-1.171a3.03 3.03 0 0 0-.446-.985 2.123 2.123 0 0 0-.736-.682 2.05 2.05 0 0 0-1.029-.248c-.389 0-.731.082-1.028.248a2.217 2.217 0 0 0-.737.682c-.194.284-.34.613-.438.985a4.557 4.557 0 0 0-.145 1.17Z"/>
  <path fill="white" d="M89.948 41.08v10.002H88.52V39.467h1.305l.123 1.613Zm5.595 2.512v.163c0 .61-.072 1.176-.215 1.698a4.191 4.191 0 0 1-.63 1.35c-.27.382-.606.679-1.005.89-.399.213-.857.319-1.374.319-.527 0-.992-.088-1.396-.264a2.758 2.758 0 0 1-1.029-.767 3.933 3.933 0 0 1-.675-1.21c-.164-.47-.276-1-.338-1.59v-.868c.061-.62.177-1.176.346-1.667.168-.491.39-.91.667-1.256a2.746 2.746 0 0 1 1.02-.799c.4-.186.86-.279 1.382-.279.522 0 .985.103 1.39.31.404.202.744.491 1.02.869.277.377.484.83.622 1.356.143.523.215 1.104.215 1.745Zm-1.428.163v-.163a5.1 5.1 0 0 0-.13-1.178 2.993 2.993 0 0 0-.407-.977 1.947 1.947 0 0 0-.69-.667c-.282-.166-.617-.248-1.006-.248-.358 0-.67.062-.936.186-.261.124-.484.292-.668.504a2.68 2.68 0 0 0-.453.713 4.127 4.127 0 0 0-.253.822v2.008c.102.362.245.703.43 1.024.184.315.43.57.736.767.307.192.694.287 1.16.287.383 0 .713-.08.99-.24.28-.166.511-.39.69-.675.184-.284.32-.61.407-.977a5.2 5.2 0 0 0 .13-1.186Z"/>
  <path fill="white" d="M101.081 4.99c-.401.389-.596.882-.596 1.478 0 .608.206 1.112.596 1.49.413.39.951.585 1.628.585.676 0 1.215-.195 1.627-.585.413-.39.619-.882.619-1.49 0-.596-.206-1.089-.607-1.479-.401-.39-.952-.584-1.628-.584-.688 0-1.238.195-1.639.584Z"/>
  <path fill="white" d="M100.726 25.279h4V10.33h-4v14.948Z"/>
  <path fill="white" d="M62.875 4.99c-.402.39-.596.882-.596 1.478 0 .608.206 1.112.596 1.49.412.39.951.585 1.627.585.677 0 1.216-.195 1.628-.585.413-.39.62-.882.62-1.49 0-.596-.207-1.089-.608-1.479-.402-.39-.952-.584-1.628-.584-.688 0-1.238.195-1.64.584Z"/>
  <path fill="white" d="M62.52 25.279h4V10.33h-4V25.28Z"/>
  <path fill="white" fill-rule="evenodd" d="M70.44 12.165c-1.089 1.399-1.639 3.244-1.639 5.537h.011v.172c0 2.315.55 4.184 1.663 5.582 1.112 1.41 2.556 2.11 4.356 2.11 1.501 0 2.716-.516 3.633-1.56v.803c0 1.043-.298 1.845-.882 2.407-.596.562-1.422.848-2.476.848-1.422 0-2.625-.561-3.623-1.673l-1.765 2.43c.539.7 1.318 1.26 2.361 1.696a8.145 8.145 0 0 0 3.199.654c1.444 0 2.705-.252 3.782-.757a5.758 5.758 0 0 0 2.51-2.212c.597-.974.895-2.11.895-3.416V10.343h-3.622l-.16 1.41c-.918-1.124-2.19-1.686-3.83-1.686-1.856 0-3.324.7-4.413 2.098Zm3.164 9.01c-.539-.768-.814-1.834-.814-3.187 0-1.547.275-2.728.825-3.496.55-.79 1.296-1.18 2.259-1.18 1.18 0 2.04.447 2.579 1.364v6.293c-.527.905-1.399 1.364-2.614 1.364-.951 0-1.696-.39-2.235-1.158Z" clip-rule="evenodd"/>
  <path fill="white" d="m88.77 10.331.126 1.731c1.066-1.33 2.499-2.006 4.298-2.006 1.582 0 2.763.47 3.531 1.399.768.928 1.17 2.315 1.192 4.172v9.652h-3.989v-9.56c0-.848-.183-1.456-.55-1.846-.367-.378-.986-.573-1.834-.573-1.124 0-1.96.481-2.522 1.433v10.534h-3.99V10.331h3.738Z"/>
  <path fill="white" d="M112.372 6.674v3.657h2.556v2.923h-2.556v7.463c0 .55.103.951.321 1.192.206.24.619.355 1.215.355a6.91 6.91 0 0 0 1.169-.092V25.2a8.175 8.175 0 0 1-2.418.355c-2.797 0-4.23-1.41-4.276-4.241v-8.047h-2.178v-2.923h2.178V6.674h3.989Z"/>
  <path fill="white" fill-rule="evenodd" d="M118.241 23.537c1.376 1.34 3.164 2.017 5.353 2.017 1.25 0 2.385-.24 3.393-.722 1.021-.47 1.835-1.135 2.431-1.983l-1.961-2.201c-.859 1.112-2.063 1.673-3.599 1.673-.997 0-1.811-.298-2.464-.882-.654-.596-1.044-1.376-1.17-2.35h9.515V17.46c0-2.361-.596-4.195-1.766-5.48-1.169-1.294-2.785-1.936-4.826-1.936-1.352 0-2.567.32-3.633.963-1.066.641-1.88 1.558-2.465 2.74-.585 1.18-.871 2.521-.871 4.023v.39c0 2.246.688 4.034 2.063 5.375Zm2.981-9.457c.492-.54 1.134-.803 1.925-.803.837 0 1.491.24 1.949.722.47.493.699 1.181.722 2.064v.32h-5.548c.149-.997.459-1.765.952-2.303Z" clip-rule="evenodd"/>
</svg>
